<?xml version="1.0" encoding="utf-8"?>
<!-- Generator: Adobe Illustrator 22.1.0, SVG Export Plug-In . SVG Version: 6.00 Build 0)  -->
<svg version="1.1" id="Capa_1" xmlns="http://www.w3.org/2000/svg" xmlns:xlink="http://www.w3.org/1999/xlink" x="0px" y="0px"
	 viewBox="0 0 485.2 485.2" style="enable-background:new 0 0 485.2 485.2;" xml:space="preserve">
<style type="text/css">
	.st0{fill:#6A1B9A;}
	.st1{fill:#FFFFFF;}
</style>
<path class="st0" d="M418.9,433.9H66.4c-8.3,0-15-6.8-15-15V66.4c0-8.3,6.8-15,15-15h352.5c8.3,0,15,6.8,15,15v352.5
	C433.9,427.1,427.1,433.9,418.9,433.9z"/>
<g>
	<path class="st1" d="M138.1,122.7V82.8c0-5.5,4.4-10,9.9-10s10,4.5,10,10v39.9c0,5.5-4.5,9.9-10,9.9S138.1,128.2,138.1,122.7z
		 M307.4,132.6c5.5,0,10-4.5,10-10V82.8c0-5.5-4.5-10-10-10s-10,4.5-10,10v39.9C297.5,128.2,301.9,132.6,307.4,132.6z M417,311.9
		c0,44-35.7,79.7-79.7,79.7S257.6,356,257.6,312s35.7-79.7,79.7-79.7S417,267.9,417,311.9z M397.1,311.9c0-33-26.8-59.8-59.8-59.8
		s-59.8,26.8-59.8,59.8s26.8,59.8,59.8,59.8S397.1,344.9,397.1,311.9z M177.9,192.4h-39.8v39.9H178L177.9,192.4L177.9,192.4z
		 M138.1,292H178v-39.9h-39.9V292z M197.8,232.3h39.9v-39.8h-39.9L197.8,232.3L197.8,232.3z M197.8,292h39.9v-39.9h-39.9L197.8,292
		L197.8,292z M118.1,310V172.5h219.2v39.9h19.9v-77.7c0-12.1-9.7-21.9-21.6-21.9h-8.3v10c0,11-8.9,19.9-19.9,19.9
		s-19.9-8.9-19.9-19.9v-10H168v10c0,11-8.9,19.9-19.9,19.9s-19.9-8.9-19.9-19.9v-10h-8.3c-12,0-21.6,9.8-21.6,21.9V310
		c0,12.1,9.7,21.9,21.6,21.9h117.9V312h-118C118.9,311.9,118.1,311,118.1,310z M297.5,232.3v-39.8h-39.8v39.9L297.5,232.3
		L297.5,232.3z M341.6,341.3H333c-1.8,0-3.3-1.5-3.3-3.3v-52.2c0-1.8,1.5-3.3,3.3-3.3h8.5c1.8,0,3.3,1.5,3.3,3.3V338
		C344.9,339.9,343.4,341.3,341.6,341.3z"/>
	<path class="st1" d="M361.4,318.8h-48.2c-2.8,0-5-2.3-5-5v-3.7c0-2.8,2.3-5,5-5h48.2c2.8,0,5,2.3,5,5v3.7
		C366.4,316.6,364.2,318.8,361.4,318.8z"/>
</g>
</svg>
