<?xml version="1.0" encoding="utf-8"?>
<!-- Generator: Adobe Illustrator 22.1.0, SVG Export Plug-In . SVG Version: 6.00 Build 0)  -->
<svg version="1.1" id="Capa_1" xmlns="http://www.w3.org/2000/svg" xmlns:xlink="http://www.w3.org/1999/xlink" x="0px" y="0px"
	 viewBox="0 0 512 512" style="enable-background:new 0 0 512 512;" xml:space="preserve">
<style type="text/css">
	.st0{fill:#E94E1B;}
	.st1{fill:#FFFFFF;}
</style>
<path class="st0" d="M444,464H75c-8.3,0-15-6.8-15-15V80c0-8.3,6.8-15,15-15h369c8.3,0,15,6.8,15,15v369
	C459,457.3,452.3,464,444,464z"/>
<g>
	<path class="st1" d="M296.9,139.4v43.4c11.6,5,22.2,12.3,31.4,21.4c19.3,19.3,29.9,44.9,29.9,72.2s-10.6,52.9-29.9,72.2
		c-19.3,19.3-44.9,29.9-72.2,29.9s-52.9-10.6-72.2-29.9S154,303.7,154,276.4s10.6-52.9,29.9-72.2c9.2-9.2,19.8-16.4,31.4-21.4v-43.4
		c-59.2,17.5-102.3,72.3-102.3,137c0,79,64,143,143,143s143-64,143-143C399,211.7,355.9,156.9,296.9,139.4z M235.6,92.6h40.9V256
		h-40.9V92.6z"/>
</g>
</svg>
