<?xml version="1.0" encoding="utf-8"?>
<!-- Generator: Adobe Illustrator 22.1.0, SVG Export Plug-In . SVG Version: 6.00 Build 0)  -->
<svg version="1.1" id="Capa_1" xmlns="http://www.w3.org/2000/svg" xmlns:xlink="http://www.w3.org/1999/xlink" x="0px" y="0px"
	 viewBox="0 0 459 459" style="enable-background:new 0 0 459 459;" xml:space="preserve">
<style type="text/css">
	.st0{fill:#333333;}
</style>
<g>
	<g id="account-box">
		<path class="st0" d="M0,51v357c0,28,23,51,51,51h357c28,0,51-23,51-51V51c0-28-23-51-51-51H51C23,0,0,23,0,51z M306,153
			c0,43.4-33.1,76.5-76.5,76.5S153,196.4,153,153s33.1-76.5,76.5-76.5S306,109.7,306,153z M91,348.2C91,279.7,183.3,242,229.5,242
			S368,279.7,368,348.2v34.3H91V348.2z"/>
	</g>
</g>
</svg>
