<?xml version="1.0" encoding="utf-8"?>
<!-- Generator: Adobe Illustrator 22.1.0, SVG Export Plug-In . SVG Version: 6.00 Build 0)  -->
<svg version="1.1" id="Layer_1" xmlns="http://www.w3.org/2000/svg" xmlns:xlink="http://www.w3.org/1999/xlink" x="0px" y="0px"
	 viewBox="0 0 654 654" style="enable-background:new 0 0 654 654;" xml:space="preserve">
<style type="text/css">
	.st0{fill:#333333;}
	.st1{fill:#FFFFFF;}
</style>
<path class="st0" d="M607.1,638H46.9c0-11.9-9.7-21.5-21.5-21.5V31.2c11.9,0,21.5-9.7,21.5-21.5h560.3c0,11.9,9.7,21.5,21.5,21.5
	v585.3C616.7,616.5,607.1,626.3,607.1,638z"/>
<g>
	<g>
		<path class="st1" d="M419.4,276.2c0,17.3-14,31.2-31.2,31.2c-17.2,0-31.2-14-31.2-31.2c0-17.3,14-31.2,31.2-31.2
			C405.3,245,419.4,259,419.4,276.2z M145.4,493.6c-8.3,0-15-6.7-15-15v-292c0-8.3,6.7-15,15-15h332.3c8.3,0,15,6.7,15,15v161.6
			h-22.6h-12.9V206.3H165.4v195.1h16.6l67.3-105l45,70.2l22.3,34.8H336l-31.9-50l20.9-32.5l53,82.5h21.3V419v34.4v21.8h21.8h27.4
			v18.5H145.4L145.4,493.6z M504.6,453.4v49.1h-34.4v-8.9v-40.2h-49.1V419h49.1v-49.1h22.6h11.7V419h49.1v34.4H504.6z"/>
	</g>
</g>
</svg>
