<?xml version="1.0" encoding="utf-8"?>
<!-- Generator: Adobe Illustrator 22.1.0, SVG Export Plug-In . SVG Version: 6.00 Build 0)  -->
<svg version="1.1" id="Layer_1" xmlns="http://www.w3.org/2000/svg" xmlns:xlink="http://www.w3.org/1999/xlink" x="0px" y="0px"
	 viewBox="0 0 654 654" style="enable-background:new 0 0 654 654;" xml:space="preserve">
<style type="text/css">
	.st0{fill:#333333;}
	.st1{fill:#FFFFFF;}
</style>
<path class="st0" d="M522.6,543.2H131.4c0-8.3-6.8-15-15-15V119.5c8.3,0,15-6.8,15-15h391.2c0,8.3,6.8,15,15,15v408.7
	C529.3,528.2,522.6,535,522.6,543.2z"/>
<g>
	<g>
		<path class="st1" d="M391.5,290.6c0,12.1-9.8,21.8-21.8,21.8s-21.8-9.8-21.8-21.8c0-12.1,9.8-21.8,21.8-21.8
			S391.5,278.6,391.5,290.6z M200.2,442.4c-5.8,0-10.5-4.7-10.5-10.5V228c0-5.8,4.7-10.5,10.5-10.5h232c5.8,0,10.5,4.7,10.5,10.5
			v112.8h-15.8h-9v-99H214.2V378h11.6l47-73.3l31.4,49l15.6,24.3h13.5L311,343.1l14.6-22.7l37,57.6h14.9v12.3v24v15.2h15.2h19.1
			v12.9L200.2,442.4L200.2,442.4z M451,414.3v34.3h-24v-6.2v-28.1h-34.3v-24h34.3V356h15.8h8.2v34.3h34.3v24H451z"/>
	</g>
</g>
</svg>
