<?xml version="1.0" encoding="utf-8"?>
<!-- Generator: Adobe Illustrator 22.1.0, SVG Export Plug-In . SVG Version: 6.00 Build 0)  -->
<svg version="1.1" id="Capa_1" xmlns="http://www.w3.org/2000/svg" xmlns:xlink="http://www.w3.org/1999/xlink" x="0px" y="0px"
	 viewBox="0 0 512 512" style="enable-background:new 0 0 512 512;" xml:space="preserve">
<style type="text/css">
	.st0{fill:#E94E1B;}
	.st1{fill:#FFFFFF;}
</style>
<path class="st0" d="M444,464H75c-8.3,0-15-6.8-15-15V80c0-8.3,6.8-15,15-15h369c8.3,0,15,6.8,15,15v369
	C459,457.3,452.3,464,444,464z"/>
<g>
	<g>
		<path class="st1" d="M289.6,383.4c-0.1,2.2-0.1,4.1-0.1,5.6c0.1,1.5,0.3,3.1,0.7,5s1,3.2,2.1,4.1c1,0.9,2.5,1.4,4.4,1.4h67.5
			c16.7,0,31-5.9,42.9-17.8s17.8-26.2,17.8-42.9V190.2c0-16.7-5.9-31-17.8-42.9c-11.9-11.9-26.2-17.8-42.9-17.8h-67.5
			c-1.8,0-3.4,0.7-4.7,2c-1.3,1.3-2,2.9-2,4.7c0,0.6-0.1,2-0.2,4.2s-0.1,4.1-0.1,5.6c0.1,1.5,0.3,3.1,0.7,5c0.4,1.8,1,3.2,2.1,4.1
			c1,0.9,2.5,1.4,4.4,1.4h67.5c9.3,0,17.2,3.3,23.9,9.9c6.6,6.6,9.9,14.6,9.9,23.9v148.5c0,9.3-3.3,17.2-9.9,23.9
			c-6.6,6.7-14.6,9.9-23.9,9.9h-60.7h-2.3h-2.7c0,0-0.8,0.1-2.4,0.2s-2.4,0.4-2.4,0.7c0,0.3-0.6,0.7-1.7,1.2s-1.6,1.1-1.5,1.9
			c0.1,0.7,0,1.7-0.4,2.9C289.8,379.7,289.8,381.1,289.6,383.4z"/>
		<path class="st1" d="M94,264.4c0,3.6,1.3,6.8,4,9.5l114.8,114.8c2.7,2.7,5.8,4,9.5,4s6.8-1.3,9.5-4s4-5.8,4-9.5v-60.7h94.5
			c3.6,0,6.8-1.3,9.5-4s4-5.8,4-9.5v-81.1c0-3.6-1.3-6.8-4-9.5s-5.8-4-9.5-4h-94.4v-60.7c0-3.6-1.3-6.8-4-9.5s-5.8-4-9.5-4
			c-3.6,0-6.8,1.3-9.5,4L98,254.9C95.3,257.6,94,260.7,94,264.4z"/>
	</g>
</g>
</svg>
